<?xml version="1.0" encoding="UTF-8" standalone="no"?>
<!DOCTYPE svg PUBLIC "-//W3C//DTD SVG 1.1//EN" "http://www.w3.org/Graphics/SVG/1.1/DTD/svg11.dtd">
<svg version="1.1" xmlns="http://www.w3.org/2000/svg" xmlns:xlink="http://www.w3.org/1999/xlink" preserveAspectRatio="xMidYMid meet" viewBox="0 0 761 761" width="32" height="32"><defs><path d="M130.52 369.72L116.41 352.39L87.99 348.36L51.99 362.7L119.72 300.16L228.71 256.53L310.42 242.49L375.38 248.73L410.61 258.86L431.43 270.37L436.63 281.29L427.72 296.68L408.76 304.72L375.99 298.51L329.3 298.82L272.38 311.53L198.51 342.46L138.96 392.8L130.52 369.72Z" id="a7C7UmE2eC"></path><path d="M89.17 346.62L117.59 350.65L131.7 367.99L139.11 391.15L132.45 408.4L113.3 414.38L87.18 412.73L69.01 407.2L49.85 391.38L48.37 375.95L52.14 361.06L89.17 346.62Z" id="hGnELGk5"></path><path d="M203.69 444.74L320.47 456.27L426.56 467.44L521.82 508.56L620.15 534.17L693.65 586.51L735.68 628.15L739.54 572.99L720.34 515.46L661.36 460.17L639.62 432.14L618.72 405.08L580.15 381.77L518.32 364.84L463.78 326.45L407.63 303.79L376.92 297.38L326.11 298.08L271.25 310.6L198.41 341.43L137.93 392.89L132.2 409.01L203.69 444.74Z" id="cJ7GzBvE5"></path><path d="M218.78 434.67L425.21 462.77L523.64 503.82L619.64 528.96L629.35 536.96L699.64 587.82L735.64 628.15L693.35 586.1L620.92 534.53L521.49 508.25L425.21 466.82L204.07 445.1L132.2 409.67L137.93 392.8L218.78 434.67Z" id="fvTtu6Era"></path><path d="M224.05 388.83L232.29 397.06L261.7 397.06L295.81 388.83L307.58 373.53L295.81 357.06L269.93 351.18L248.76 357.06L232.29 373.53L224.05 388.83Z" id="cEjzmLvvq"></path><path d="M477.9 451.35L480.67 462.66L505.82 477.9L539.27 488.54L557.26 481.56L555.73 461.38L536.65 442.93L515.49 436.99L492.86 442.54L477.9 451.35Z" id="dU1hkFyoZ"></path><path d="M389.24 402.93L413.72 406.97L435.38 402.93L451.39 396.86L451.39 383.72L439.15 371.59L424.08 363.5L405.25 363.5L386.41 371.59L372.29 386.75L389.24 402.93Z" id="d2b1FHStMm"></path><path d="M620.54 508.92L643.5 518.34L665.51 519.25L682.48 516.92L685.42 504.11L676.2 489.55L663.33 478.29L644.97 474.07L624.8 477.74L607.64 489.36L620.54 508.92Z" id="c5UpQBYRn"></path><path d="M602.39 462.77L622.81 460.3L631.17 444.72L631.17 434.06L622.81 425.03L608.68 419.29L590.33 422.57L573.98 429.96L573.98 450.46L602.39 462.77Z" id="eAiWOC1Sl"></path></defs><g><g><g><use xlink:href="#a7C7UmE2eC" opacity="1" fill="#ffffff" fill-opacity="1"></use><g><use xlink:href="#a7C7UmE2eC" opacity="1" fill-opacity="0" stroke="#000000" stroke-width="1" stroke-opacity="1"></use></g></g><g><use xlink:href="#hGnELGk5" opacity="1" fill="#000000" fill-opacity="1"></use><g><use xlink:href="#hGnELGk5" opacity="1" fill-opacity="0" stroke="#000000" stroke-width="1" stroke-opacity="1"></use></g></g><g><use xlink:href="#cJ7GzBvE5" opacity="1" fill="#000000" fill-opacity="1"></use><g><use xlink:href="#cJ7GzBvE5" opacity="1" fill-opacity="0" stroke="#000000" stroke-width="1" stroke-opacity="1"></use></g></g><g><use xlink:href="#fvTtu6Era" opacity="1" fill="#ffffff" fill-opacity="1"></use><g><use xlink:href="#fvTtu6Era" opacity="1" fill-opacity="0" stroke="#000000" stroke-width="1" stroke-opacity="1"></use></g></g><g><use xlink:href="#cEjzmLvvq" opacity="1" fill="#fffefe" fill-opacity="1"></use><g><use xlink:href="#cEjzmLvvq" opacity="1" fill-opacity="0" stroke="#000000" stroke-width="1" stroke-opacity="1"></use></g></g><g><use xlink:href="#dU1hkFyoZ" opacity="1" fill="#ffffff" fill-opacity="1"></use><g><use xlink:href="#dU1hkFyoZ" opacity="1" fill-opacity="0" stroke="#000000" stroke-width="1" stroke-opacity="1"></use></g></g><g><use xlink:href="#d2b1FHStMm" opacity="1" fill="#ffffff" fill-opacity="1"></use><g><use xlink:href="#d2b1FHStMm" opacity="1" fill-opacity="0" stroke="#000000" stroke-width="1" stroke-opacity="1"></use></g></g><g><use xlink:href="#c5UpQBYRn" opacity="1" fill="#ffffff" fill-opacity="1"></use><g><use xlink:href="#c5UpQBYRn" opacity="1" fill-opacity="0" stroke="#000000" stroke-width="1" stroke-opacity="1"></use></g></g><g><use xlink:href="#eAiWOC1Sl" opacity="1" fill="#ffffff" fill-opacity="1"></use><g><use xlink:href="#eAiWOC1Sl" opacity="1" fill-opacity="0" stroke="#060606" stroke-width="1" stroke-opacity="1"></use></g></g></g></g></svg>